<svg width="215.90mm" height="279.40mm" viewBox="0 0 816 1056" xmlns="http://www.w3.org/2000/svg">
  <line x1="0.000" y1="0.000" x2="116.571" y2="0.000" stroke="black" stroke-width="0.25"/>
  <line x1="116.571" y1="0.000" x2="233.143" y2="0.000" stroke="black" stroke-width="0.25"/>
  <line x1="233.143" y1="0.000" x2="349.714" y2="0.000" stroke="black" stroke-width="0.25"/>
  <line x1="349.714" y1="0.000" x2="466.286" y2="0.000" stroke="black" stroke-width="0.25"/>
  <line x1="466.286" y1="0.000" x2="582.857" y2="0.000" stroke="black" stroke-width="0.25"/>
  <line x1="582.857" y1="0.000" x2="699.429" y2="0.000" stroke="black" stroke-width="0.25"/>
  <line x1="699.429" y1="0.000" x2="816.000" y2="0.000" stroke="black" stroke-width="0.25"/>
  <line x1="49.371" y1="105.600" x2="165.943" y2="105.600" stroke="black" stroke-width="0.25"/>
  <line x1="165.943" y1="105.600" x2="282.514" y2="105.600" stroke="black" stroke-width="0.25"/>
  <line x1="282.514" y1="105.600" x2="399.086" y2="105.600" stroke="black" stroke-width="0.25"/>
  <line x1="399.086" y1="105.600" x2="515.657" y2="105.600" stroke="black" stroke-width="0.25"/>
  <line x1="515.657" y1="105.600" x2="632.229" y2="105.600" stroke="black" stroke-width="0.25"/>
  <line x1="632.229" y1="105.600" x2="748.800" y2="105.600" stroke="black" stroke-width="0.25"/>
  <line x1="748.800" y1="105.600" x2="816.000" y2="105.600" stroke="black" stroke-width="0.25"/>
  <line x1="0.000" y1="211.200" x2="116.571" y2="211.200" stroke="black" stroke-width="0.25"/>
  <line x1="116.571" y1="211.200" x2="233.143" y2="211.200" stroke="black" stroke-width="0.25"/>
  <line x1="233.143" y1="211.200" x2="349.714" y2="211.200" stroke="black" stroke-width="0.25"/>
  <line x1="349.714" y1="211.200" x2="466.286" y2="211.200" stroke="black" stroke-width="0.25"/>
  <line x1="466.286" y1="211.200" x2="582.857" y2="211.200" stroke="black" stroke-width="0.25"/>
  <line x1="582.857" y1="211.200" x2="699.429" y2="211.200" stroke="black" stroke-width="0.25"/>
  <line x1="699.429" y1="211.200" x2="816.000" y2="211.200" stroke="black" stroke-width="0.25"/>
  <line x1="49.371" y1="316.800" x2="165.943" y2="316.800" stroke="black" stroke-width="0.25"/>
  <line x1="165.943" y1="316.800" x2="282.514" y2="316.800" stroke="black" stroke-width="0.25"/>
  <line x1="282.514" y1="316.800" x2="399.086" y2="316.800" stroke="black" stroke-width="0.25"/>
  <line x1="399.086" y1="316.800" x2="515.657" y2="316.800" stroke="black" stroke-width="0.25"/>
  <line x1="515.657" y1="316.800" x2="632.229" y2="316.800" stroke="black" stroke-width="0.25"/>
  <line x1="632.229" y1="316.800" x2="748.800" y2="316.800" stroke="black" stroke-width="0.25"/>
  <line x1="748.800" y1="316.800" x2="816.000" y2="316.800" stroke="black" stroke-width="0.25"/>
  <line x1="0.000" y1="422.400" x2="116.571" y2="422.400" stroke="black" stroke-width="0.25"/>
  <line x1="116.571" y1="422.400" x2="233.143" y2="422.400" stroke="black" stroke-width="0.25"/>
  <line x1="233.143" y1="422.400" x2="349.714" y2="422.400" stroke="black" stroke-width="0.25"/>
  <line x1="349.714" y1="422.400" x2="466.286" y2="422.400" stroke="black" stroke-width="0.25"/>
  <line x1="466.286" y1="422.400" x2="582.857" y2="422.400" stroke="black" stroke-width="0.25"/>
  <line x1="582.857" y1="422.400" x2="699.429" y2="422.400" stroke="black" stroke-width="0.25"/>
  <line x1="699.429" y1="422.400" x2="816.000" y2="422.400" stroke="black" stroke-width="0.25"/>
  <line x1="49.371" y1="528.000" x2="165.943" y2="528.000" stroke="black" stroke-width="0.25"/>
  <line x1="165.943" y1="528.000" x2="282.514" y2="528.000" stroke="black" stroke-width="0.25"/>
  <line x1="282.514" y1="528.000" x2="399.086" y2="528.000" stroke="black" stroke-width="0.25"/>
  <line x1="399.086" y1="528.000" x2="515.657" y2="528.000" stroke="black" stroke-width="0.25"/>
  <line x1="515.657" y1="528.000" x2="632.229" y2="528.000" stroke="black" stroke-width="0.25"/>
  <line x1="632.229" y1="528.000" x2="748.800" y2="528.000" stroke="black" stroke-width="0.25"/>
  <line x1="748.800" y1="528.000" x2="816.000" y2="528.000" stroke="black" stroke-width="0.25"/>
  <line x1="0.000" y1="633.600" x2="116.571" y2="633.600" stroke="black" stroke-width="0.25"/>
  <line x1="116.571" y1="633.600" x2="233.143" y2="633.600" stroke="black" stroke-width="0.25"/>
  <line x1="233.143" y1="633.600" x2="349.714" y2="633.600" stroke="black" stroke-width="0.25"/>
  <line x1="349.714" y1="633.600" x2="466.286" y2="633.600" stroke="black" stroke-width="0.25"/>
  <line x1="466.286" y1="633.600" x2="582.857" y2="633.600" stroke="black" stroke-width="0.25"/>
  <line x1="582.857" y1="633.600" x2="699.429" y2="633.600" stroke="black" stroke-width="0.25"/>
  <line x1="699.429" y1="633.600" x2="816.000" y2="633.600" stroke="black" stroke-width="0.25"/>
  <line x1="49.371" y1="739.200" x2="165.943" y2="739.200" stroke="black" stroke-width="0.25"/>
  <line x1="165.943" y1="739.200" x2="282.514" y2="739.200" stroke="black" stroke-width="0.25"/>
  <line x1="282.514" y1="739.200" x2="399.086" y2="739.200" stroke="black" stroke-width="0.25"/>
  <line x1="399.086" y1="739.200" x2="515.657" y2="739.200" stroke="black" stroke-width="0.25"/>
  <line x1="515.657" y1="739.200" x2="632.229" y2="739.200" stroke="black" stroke-width="0.25"/>
  <line x1="632.229" y1="739.200" x2="748.800" y2="739.200" stroke="black" stroke-width="0.25"/>
  <line x1="748.800" y1="739.200" x2="816.000" y2="739.200" stroke="black" stroke-width="0.25"/>
  <line x1="0.000" y1="844.800" x2="116.571" y2="844.800" stroke="black" stroke-width="0.25"/>
  <line x1="116.571" y1="844.800" x2="233.143" y2="844.800" stroke="black" stroke-width="0.25"/>
  <line x1="233.143" y1="844.800" x2="349.714" y2="844.800" stroke="black" stroke-width="0.25"/>
  <line x1="349.714" y1="844.800" x2="466.286" y2="844.800" stroke="black" stroke-width="0.25"/>
  <line x1="466.286" y1="844.800" x2="582.857" y2="844.800" stroke="black" stroke-width="0.25"/>
  <line x1="582.857" y1="844.800" x2="699.429" y2="844.800" stroke="black" stroke-width="0.25"/>
  <line x1="699.429" y1="844.800" x2="816.000" y2="844.800" stroke="black" stroke-width="0.25"/>
  <line x1="49.371" y1="950.400" x2="165.943" y2="950.400" stroke="black" stroke-width="0.25"/>
  <line x1="165.943" y1="950.400" x2="282.514" y2="950.400" stroke="black" stroke-width="0.25"/>
  <line x1="282.514" y1="950.400" x2="399.086" y2="950.400" stroke="black" stroke-width="0.25"/>
  <line x1="399.086" y1="950.400" x2="515.657" y2="950.400" stroke="black" stroke-width="0.25"/>
  <line x1="515.657" y1="950.400" x2="632.229" y2="950.400" stroke="black" stroke-width="0.25"/>
  <line x1="632.229" y1="950.400" x2="748.800" y2="950.400" stroke="black" stroke-width="0.25"/>
  <line x1="748.800" y1="950.400" x2="816.000" y2="950.400" stroke="black" stroke-width="0.25"/>
  <line x1="0.000" y1="1056.000" x2="116.571" y2="1056.000" stroke="black" stroke-width="0.25"/>
  <line x1="116.571" y1="1056.000" x2="233.143" y2="1056.000" stroke="black" stroke-width="0.25"/>
  <line x1="233.143" y1="1056.000" x2="349.714" y2="1056.000" stroke="black" stroke-width="0.25"/>
  <line x1="349.714" y1="1056.000" x2="466.286" y2="1056.000" stroke="black" stroke-width="0.25"/>
  <line x1="466.286" y1="1056.000" x2="582.857" y2="1056.000" stroke="black" stroke-width="0.25"/>
  <line x1="582.857" y1="1056.000" x2="699.429" y2="1056.000" stroke="black" stroke-width="0.25"/>
  <line x1="699.429" y1="1056.000" x2="816.000" y2="1056.000" stroke="black" stroke-width="0.25"/>
  <line x1="0.000" y1="0.000" x2="49.371" y2="105.600" stroke="black" stroke-width="0.25"/>
  <line x1="49.371" y1="105.600" x2="0.000" y2="211.200" stroke="black" stroke-width="0.25"/>
  <line x1="0.000" y1="211.200" x2="49.371" y2="316.800" stroke="black" stroke-width="0.25"/>
  <line x1="49.371" y1="316.800" x2="0.000" y2="422.400" stroke="black" stroke-width="0.25"/>
  <line x1="0.000" y1="422.400" x2="49.371" y2="528.000" stroke="black" stroke-width="0.25"/>
  <line x1="49.371" y1="528.000" x2="0.000" y2="633.600" stroke="black" stroke-width="0.25"/>
  <line x1="0.000" y1="633.600" x2="49.371" y2="739.200" stroke="black" stroke-width="0.25"/>
  <line x1="49.371" y1="739.200" x2="0.000" y2="844.800" stroke="black" stroke-width="0.25"/>
  <line x1="0.000" y1="844.800" x2="49.371" y2="950.400" stroke="black" stroke-width="0.25"/>
  <line x1="49.371" y1="950.400" x2="0.000" y2="1056.000" stroke="black" stroke-width="0.25"/>
  <line x1="116.571" y1="0.000" x2="165.943" y2="105.600" stroke="black" stroke-width="0.25"/>
  <line x1="165.943" y1="105.600" x2="116.571" y2="211.200" stroke="black" stroke-width="0.25"/>
  <line x1="116.571" y1="211.200" x2="165.943" y2="316.800" stroke="black" stroke-width="0.25"/>
  <line x1="165.943" y1="316.800" x2="116.571" y2="422.400" stroke="black" stroke-width="0.25"/>
  <line x1="116.571" y1="422.400" x2="165.943" y2="528.000" stroke="black" stroke-width="0.25"/>
  <line x1="165.943" y1="528.000" x2="116.571" y2="633.600" stroke="black" stroke-width="0.25"/>
  <line x1="116.571" y1="633.600" x2="165.943" y2="739.200" stroke="black" stroke-width="0.25"/>
  <line x1="165.943" y1="739.200" x2="116.571" y2="844.800" stroke="black" stroke-width="0.25"/>
  <line x1="116.571" y1="844.800" x2="165.943" y2="950.400" stroke="black" stroke-width="0.25"/>
  <line x1="165.943" y1="950.400" x2="116.571" y2="1056.000" stroke="black" stroke-width="0.25"/>
  <line x1="233.143" y1="0.000" x2="282.514" y2="105.600" stroke="black" stroke-width="0.25"/>
  <line x1="282.514" y1="105.600" x2="233.143" y2="211.200" stroke="black" stroke-width="0.25"/>
  <line x1="233.143" y1="211.200" x2="282.514" y2="316.800" stroke="black" stroke-width="0.25"/>
  <line x1="282.514" y1="316.800" x2="233.143" y2="422.400" stroke="black" stroke-width="0.25"/>
  <line x1="233.143" y1="422.400" x2="282.514" y2="528.000" stroke="black" stroke-width="0.25"/>
  <line x1="282.514" y1="528.000" x2="233.143" y2="633.600" stroke="black" stroke-width="0.25"/>
  <line x1="233.143" y1="633.600" x2="282.514" y2="739.200" stroke="black" stroke-width="0.25"/>
  <line x1="282.514" y1="739.200" x2="233.143" y2="844.800" stroke="black" stroke-width="0.25"/>
  <line x1="233.143" y1="844.800" x2="282.514" y2="950.400" stroke="black" stroke-width="0.25"/>
  <line x1="282.514" y1="950.400" x2="233.143" y2="1056.000" stroke="black" stroke-width="0.25"/>
  <line x1="349.714" y1="0.000" x2="399.086" y2="105.600" stroke="black" stroke-width="0.25"/>
  <line x1="399.086" y1="105.600" x2="349.714" y2="211.200" stroke="black" stroke-width="0.25"/>
  <line x1="349.714" y1="211.200" x2="399.086" y2="316.800" stroke="black" stroke-width="0.25"/>
  <line x1="399.086" y1="316.800" x2="349.714" y2="422.400" stroke="black" stroke-width="0.25"/>
  <line x1="349.714" y1="422.400" x2="399.086" y2="528.000" stroke="black" stroke-width="0.25"/>
  <line x1="399.086" y1="528.000" x2="349.714" y2="633.600" stroke="black" stroke-width="0.25"/>
  <line x1="349.714" y1="633.600" x2="399.086" y2="739.200" stroke="black" stroke-width="0.25"/>
  <line x1="399.086" y1="739.200" x2="349.714" y2="844.800" stroke="black" stroke-width="0.25"/>
  <line x1="349.714" y1="844.800" x2="399.086" y2="950.400" stroke="black" stroke-width="0.25"/>
  <line x1="399.086" y1="950.400" x2="349.714" y2="1056.000" stroke="black" stroke-width="0.25"/>
  <line x1="466.286" y1="0.000" x2="515.657" y2="105.600" stroke="black" stroke-width="0.25"/>
  <line x1="515.657" y1="105.600" x2="466.286" y2="211.200" stroke="black" stroke-width="0.25"/>
  <line x1="466.286" y1="211.200" x2="515.657" y2="316.800" stroke="black" stroke-width="0.25"/>
  <line x1="515.657" y1="316.800" x2="466.286" y2="422.400" stroke="black" stroke-width="0.25"/>
  <line x1="466.286" y1="422.400" x2="515.657" y2="528.000" stroke="black" stroke-width="0.25"/>
  <line x1="515.657" y1="528.000" x2="466.286" y2="633.600" stroke="black" stroke-width="0.25"/>
  <line x1="466.286" y1="633.600" x2="515.657" y2="739.200" stroke="black" stroke-width="0.25"/>
  <line x1="515.657" y1="739.200" x2="466.286" y2="844.800" stroke="black" stroke-width="0.25"/>
  <line x1="466.286" y1="844.800" x2="515.657" y2="950.400" stroke="black" stroke-width="0.25"/>
  <line x1="515.657" y1="950.400" x2="466.286" y2="1056.000" stroke="black" stroke-width="0.25"/>
  <line x1="582.857" y1="0.000" x2="632.229" y2="105.600" stroke="black" stroke-width="0.25"/>
  <line x1="632.229" y1="105.600" x2="582.857" y2="211.200" stroke="black" stroke-width="0.25"/>
  <line x1="582.857" y1="211.200" x2="632.229" y2="316.800" stroke="black" stroke-width="0.25"/>
  <line x1="632.229" y1="316.800" x2="582.857" y2="422.400" stroke="black" stroke-width="0.25"/>
  <line x1="582.857" y1="422.400" x2="632.229" y2="528.000" stroke="black" stroke-width="0.25"/>
  <line x1="632.229" y1="528.000" x2="582.857" y2="633.600" stroke="black" stroke-width="0.25"/>
  <line x1="582.857" y1="633.600" x2="632.229" y2="739.200" stroke="black" stroke-width="0.25"/>
  <line x1="632.229" y1="739.200" x2="582.857" y2="844.800" stroke="black" stroke-width="0.25"/>
  <line x1="582.857" y1="844.800" x2="632.229" y2="950.400" stroke="black" stroke-width="0.25"/>
  <line x1="632.229" y1="950.400" x2="582.857" y2="1056.000" stroke="black" stroke-width="0.25"/>
  <line x1="699.429" y1="0.000" x2="748.800" y2="105.600" stroke="black" stroke-width="0.25"/>
  <line x1="748.800" y1="105.600" x2="699.429" y2="211.200" stroke="black" stroke-width="0.25"/>
  <line x1="699.429" y1="211.200" x2="748.800" y2="316.800" stroke="black" stroke-width="0.25"/>
  <line x1="748.800" y1="316.800" x2="699.429" y2="422.400" stroke="black" stroke-width="0.25"/>
  <line x1="699.429" y1="422.400" x2="748.800" y2="528.000" stroke="black" stroke-width="0.25"/>
  <line x1="748.800" y1="528.000" x2="699.429" y2="633.600" stroke="black" stroke-width="0.25"/>
  <line x1="699.429" y1="633.600" x2="748.800" y2="739.200" stroke="black" stroke-width="0.25"/>
  <line x1="748.800" y1="739.200" x2="699.429" y2="844.800" stroke="black" stroke-width="0.25"/>
  <line x1="699.429" y1="844.800" x2="748.800" y2="950.400" stroke="black" stroke-width="0.25"/>
  <line x1="748.800" y1="950.400" x2="699.429" y2="1056.000" stroke="black" stroke-width="0.25"/>
</svg>